<svg xmlns="http://www.w3.org/2000/svg" viewBox="0 0 172.687 204.643"><g data-name="Layer 2"><g data-name="ART"><path d="M84.743 164.686c-7.093 5.13-19.326 11.345-36.89 18.76-16.89 7.132-33.859 13.253-40.255 15.514 8.417 1.566 37.763 3.183 78.95 3.465 46.504.314 72.301-1.343 79.159-3.241-11.078-3.615-60.528-20.184-80.721-34.244a.944.944 0 01-.243-.254z" fill="#d8e9f7"/><path d="M123.05 102.488c22.103.172 33.507.798 39.423 1.515-8.083-5.044-24.284-15.044-39.69-23.884q.07 6.348.15 12.631l.118 9.738zM50.493 80.133C33.89 89.57 16.354 100.327 8.87 104.963c9.492-.805 30.585-1.423 41.604-1.705.022-7.746.026-15.517.02-23.125zM123.071 104.403c29.75.233 39.613 1.319 42.854 2.054-5.808 2.606-24.127 10.894-42.705 19.996-.006-7.332-.066-14.622-.149-22.05zm-72.603.77c-22.444.574-36.37 1.232-42.254 1.74 7.697 3.17 25.141 10.525 42.145 18.876.052-6.746.088-13.663.11-20.615z" fill="#c4d7e9"/><path fill="#b3cfdb" d="M47.035 125.307V80.133l8.081-3.394v52.558l-8.081-3.99zM126.827 125.307V80.133l-8.081-2.223v51.387l8.081-3.99z"/><path d="M50.359 125.79c.01-1.246.016-2.522.024-3.778-6.613-1.514-12.968-3.252-18.629-4.95a620.958 620.958 0 0118.605 8.727zM145.054 116.023c-5.997 1.69-13.59 3.667-21.855 5.447.007 1.66.02 3.32.021 4.983a1320.016 1320.016 0 0121.834-10.43z" fill="#b3cfdb"/><path d="M79.543 86.047a71.786 71.786 0 00-2.884-.134 7.852 7.852 0 00-.075 1.174 4.704 4.704 0 00.08.745q4.59.246 9.259.312c.046-.275.09-.553.133-.833.057-.366.121-.735.186-1.102a711.554 711.554 0 00-3.234-.017c-1.135-.002-2.32-.074-3.465-.145zM79.974 92.869a3.198 3.198 0 003.25.214 4.52 4.52 0 002.284-3.035c-2.733-.04-5.46-.116-8.163-.25a7.445 7.445 0 002.629 3.07zM88.179 86.223c-.084.443-.157.905-.23 1.382l-.09.555c2.953.026 5.902.03 8.814.022a8.872 8.872 0 00-.456-1.879c-2.385-.026-5.32-.057-8.038-.08z" fill="#cedd3e"/><path d="M86.855 65.702c-11.344 0-20.573 9.882-20.573 22.029 0 12.145 9.229 22.026 20.573 22.026 11.344 0 20.573-9.881 20.573-22.026 0-12.147-9.23-22.029-20.573-22.029zm15.132 19.713a.957.957 0 01-.958.944h-.012l-2.792-.033a10.405 10.405 0 01.365 1.853l2.466-.003a.957.957 0 010 1.914l-2.526.004a4.233 4.233 0 01-4.324 3.649.957.957 0 11-.095-1.913 2.369 2.369 0 002.463-1.733q-1.895.005-3.805.006-2.637 0-5.291-.025a6.56 6.56 0 01-3.403 4.72 5.064 5.064 0 01-2.267.552 5.417 5.417 0 01-2.827-.844 9.782 9.782 0 01-3.775-4.831c-.582-.036-1.17-.06-1.75-.102a.957.957 0 01-.884-1.025.972.972 0 011.024-.885c.374.028.758.038 1.133.063-.022-.202-.056-.407-.06-.604a9.595 9.595 0 01.058-1.165c-.222.014-.45.02-.664.043a.947.947 0 01-1.056-.847.957.957 0 01.848-1.055c.42-.046.848-.071 1.28-.088a8.034 8.034 0 012.217-3.568 6.006 6.006 0 014.946-1.468.958.958 0 01.818 1.08.97.97 0 01-1.079.818 4.074 4.074 0 00-3.414 1 5.833 5.833 0 00-1.463 2.14c.834.027 1.673.073 2.5.124 1.117.068 2.273.14 3.353.142 1.042.002 2.306.01 3.672.02l.007-.029c1.593-4.867 4.163-5.137 5.558-4.864 2.136.42 4.067 2.547 5.234 4.998l3.558.042a.958.958 0 01.945.97z" fill="#cedd3e"/><path d="M121.018 92.775q-.085-6.88-.163-13.856a.956.956 0 01-.064-1.042c.013-.024.036-.037.05-.059-.15-13.877-1.397-65.97-1.578-73.508L51.976 2.239c.077 7.46.547 55.305.41 101.927v.003c-.022 7.615-.06 15.195-.12 22.562q2.874 1.428 5.7 2.884V18.16a.956.956 0 01.563-.872c7.04-3.188 7.57-7.476 7.588-7.657a.966.966 0 01.953-.866h35.205a.957.957 0 01.937.764c1.593 7.698 10.18 9.126 10.268 9.14a.958.958 0 01.809.936l1.182 110.687q2.901-1.455 5.837-2.9c-.001-11.431-.14-22.7-.29-34.617z" fill="#cedd3e"/><path d="M91.881 81.283c-1.55-.299-2.554 1.367-3.174 3.03 2.23.02 4.569.043 6.611.065-.94-1.594-2.223-2.856-3.437-3.095z" fill="#cedd3e"/><path d="M101.52 10.68H67.842c-.473 1.648-2.145 5.281-7.962 8.089v111.84c10.512 5.497 20.061 11.154 25.994 16.143a.949.949 0 01.415-.575c6.917-4.345 16.785-9.628 27.276-14.925l-1.183-110.866c-2.324-.584-9.011-2.837-10.864-9.706zM86.854 111.672c-12.4 0-22.488-10.74-22.488-23.941 0-13.203 10.088-23.943 22.488-23.943s22.488 10.74 22.488 23.943c0 13.2-10.089 23.94-22.488 23.94z" fill="#cedd3e"/><path d="M90.218 155.678c.24-2.989-4.942-10.716-42.326-28.892-19.252-9.36-38.824-17.452-42.865-19.106-1.162 3.466-2.528 21.742-2.781 45.048-.299 27.506 1.143 42.285 2.702 45.135 24.048-8.313 84.413-31.435 85.27-42.185z" fill="#d8e9f7"/><path d="M87.308 147.798a.934.934 0 01-.159.07c3.291 2.992 5.159 5.71 4.979 7.962q-.264 3.3-5.833 7.686c21.285 14.689 74.792 32.172 81.514 34.337 2.043-3.99 3.024-21.14 2.57-45.554-.393-21.201-1.715-39.76-2.765-44.5-7.726 3.456-58.627 26.38-80.306 39.999z" fill="#d8e9f7"/><path d="M122.267 129.229a1.25 1.25 0 01-1.25-1.25c.004-11.623-.14-23.062-.291-35.173q-.09-7.329-.174-14.758c-.139-13.395-1.37-64.961-1.575-73.455L52.272 2.54c.1 9.803.709 72.826.281 124.864a1.25 1.25 0 01-1.25 1.24h-.01a1.25 1.25 0 01-1.24-1.261c.462-56.282-.287-125.426-.295-126.118a1.249 1.249 0 01.375-.907 1.217 1.217 0 01.913-.356l69.19 2.129a1.25 1.25 0 011.212 1.219c.014.6 1.454 60.117 1.604 74.673q.078 7.43.174 14.752c.151 12.119.295 23.566.291 35.204a1.25 1.25 0 01-1.25 1.25z" fill="#3e4147"/><path d="M114.53 133.077a1.25 1.25 0 01-1.25-1.236L112.09 20.625c-2.533-.647-8.87-2.914-10.796-9.652H68.057c-.566 1.773-2.349 5.256-7.883 7.98v112.295a1.25 1.25 0 01-2.5 0V18.16a1.249 1.249 0 01.735-1.138c6.86-3.107 7.398-7.248 7.418-7.422a1.266 1.266 0 011.244-1.127h35.204a1.25 1.25 0 011.223.997c1.546 7.466 9.682 8.855 10.028 8.91a1.253 1.253 0 011.054 1.222l1.2 112.211a1.25 1.25 0 01-1.237 1.264z" fill="#3e4147"/><path d="M86.855 111.715c-12.423 0-22.53-10.76-22.53-23.984 0-13.226 10.107-23.986 22.53-23.986s22.53 10.76 22.53 23.986c0 13.224-10.107 23.984-22.53 23.984zm0-45.97c-11.32 0-20.53 9.862-20.53 21.986 0 12.122 9.21 21.984 20.53 21.984s20.53-9.862 20.53-21.984c0-12.124-9.21-21.986-20.53-21.986z" fill="#3e4147"/><path d="M81.808 95.393a5.464 5.464 0 01-2.85-.851 9.777 9.777 0 01-4.332-7.418 8.916 8.916 0 012.699-6.716 6.02 6.02 0 014.978-1.475 1 1 0 01-.271 1.98 4.053 4.053 0 00-3.38.99 6.873 6.873 0 00-2.026 5.184 7.823 7.823 0 003.37 5.746 3.163 3.163 0 003.21.213c2.076-1.03 2.432-3.32 2.808-5.742a19.74 19.74 0 01.638-3.048c1.602-4.903 4.203-5.172 5.606-4.894 3.624.712 6.68 6.302 6.406 10.116a4.327 4.327 0 01-4.456 4.307 1 1 0 01-.1-1.998 2.36 2.36 0 002.56-2.454c.222-3.06-2.467-7.55-4.796-8.009-1.665-.33-2.73 1.75-3.32 3.553a18.068 18.068 0 00-.561 2.733c-.418 2.69-.892 5.737-3.897 7.227a5.106 5.106 0 01-2.286.556z" fill="#3e4147"/><path d="M101.029 86.401h-.013c-.122-.002-12.326-.153-18.008-.167-1.137-.003-2.323-.075-3.47-.144a33.35 33.35 0 00-5.47-.046 1 1 0 01-.217-1.988 34.909 34.909 0 015.809.037c1.118.068 2.274.138 3.352.141 5.692.014 17.906.166 18.03.167a1 1 0 01-.013 2zM92.783 90.146c-6.446 0-12.998-.07-19.33-.53a1 1 0 01.145-1.995c7.624.555 15.614.537 23.334.519l4.124-.007a1 1 0 010 2l-4.12.007q-2.065.004-4.153.006zM95.744 204.643c-42.162 0-88.434-1.689-91.94-4.706-5.346-4.6-3.932-61.818-2.474-80.775.979-12.716 1.932-13.31 2.628-13.744 1.87-1.164 30.526-2.05 47.44-2.477a1.273 1.273 0 011.281 1.22 1.25 1.25 0 01-1.219 1.28c-27.306.686-43.52 1.56-46.069 2.102-1.17 2.705-2.603 21.498-2.854 45.377-.306 28.952 1.288 43.686 2.898 45.122 2.501 1.708 34.229 3.769 81.09 4.09 52.48.355 78.647-1.795 80.737-3.946 2.183-2.637 3.294-20.65 2.825-45.881-.418-22.556-1.88-42.102-2.944-45.148-1.034-.588-7.347-2.202-45.048-2.47a1.25 1.25 0 01.009-2.5h.009c45.707.325 46.672 2.49 47.248 3.784 2.879 6.466 5.842 86.54-.179 93.815-.862 1.042-3.35 2.244-15.266 3.252-12.879 1.09-34.901 1.605-58.172 1.605z" fill="#3e4147"/><path d="M86.8 148.237a1.25 1.25 0 01-.666-2.308c20.921-13.144 68.765-34.842 79.444-39.637-6.24-3.92-26.208-16.376-44.575-26.854a1.25 1.25 0 111.239-2.172c22.055 12.583 46.403 28.004 46.646 28.158a1.25 1.25 0 01-.162 2.198c-.576.256-57.907 25.751-81.262 40.424a1.244 1.244 0 01-.664.191z" fill="#3e4147"/><path d="M4.62 200.24a1.25 1.25 0 01-.407-2.432c.213-.075 21.577-7.442 42.792-16.4 36.797-15.537 42.687-22.803 42.922-25.753.753-9.42-52.213-34.45-85.776-48.016a1.25 1.25 0 01-.196-2.218c.238-.15 24.04-15.065 45.998-27.52a1.25 1.25 0 111.235 2.173c-18.155 10.3-37.575 22.283-43.836 26.175 6.168 2.549 23.976 10.028 41.506 18.552 44.321 21.55 43.749 28.703 43.561 31.054-1.138 14.25-78.568 41.28-87.393 44.316a1.232 1.232 0 01-.406.068z" fill="#3e4147"/><path d="M168.22 199.99a.987.987 0 01-.303-.048c-.6-.189-60.255-19.162-82.955-34.967a1 1 0 111.143-1.641c22.452 15.633 81.818 34.513 82.416 34.702a1 1 0 01-.302 1.953z" fill="#3e4147"/><path d="M115.764 129.794c1.935-.97 3.424-1.638 5.376-2.6 0-2.59-.153-4.419-.166-7.002l-5.293 2.59zM57.662 122.204l-5.053-3.138c-.015 2.573-.097 5.247-.118 7.777 1.916.952 3.372 1.687 5.252 2.657zM60.202 123.392v7.122c10.513 5.497 19.412 11.134 25.345 16.123a.949.949 0 01.414-.574c6.918-4.346 16.786-9.629 27.276-14.926l-.078-7.311-27.246 15.048z" fill="#b5c933"/><path d="M84.986 164.94a.944.944 0 01-.243-.254c-7.093 5.13-19.326 11.345-36.89 18.76-16.89 7.132-33.859 13.253-40.255 15.514 1.215.226 2.879.453 4.938.677 16.093-5.88 52.882-20.03 73.887-33.734-.488-.321-.978-.643-1.437-.963z" fill="#b3cfdb"/><path d="M84.743 164.686a64.951 64.951 0 01-2.519 1.721v.098s44.075 25.92 80.79 33.248c1.092-.186 1.995-.376 2.693-.57-11.078-3.614-60.528-20.183-80.721-34.243a.944.944 0 01-.243-.254z" fill="#b3cfdb"/></g></g></svg>
